<svg width="58" height="58" viewBox="0 0 58 58" fill="none" xmlns="http://www.w3.org/2000/svg">
<g filter="url(#filter0_d_24_10)">
<path d="M54 25C54 38.8071 42.8071 50 29 50C15.1929 50 4 38.8071 4 25C4 11.1929 15.1929 0 29 0C42.8071 0 54 11.1929 54 25Z" fill="#EAEAEA"/>
<path d="M53.5 25C53.5 38.531 42.531 49.5 29 49.5C15.469 49.5 4.5 38.531 4.5 25C4.5 11.469 15.469 0.5 29 0.5C42.531 0.5 53.5 11.469 53.5 25Z" stroke="black"/>
</g>
<path d="M23.6566 15.9963L38.6566 24.6566L23.6566 33.3168L23.6566 15.9963Z" fill="black"/>
<defs>
<filter id="filter0_d_24_10" x="0" y="0" width="58" height="58" filterUnits="userSpaceOnUse" color-interpolation-filters="sRGB">
<feFlood flood-opacity="0" result="BackgroundImageFix"/>
<feColorMatrix in="SourceAlpha" type="matrix" values="0 0 0 0 0 0 0 0 0 0 0 0 0 0 0 0 0 0 127 0" result="hardAlpha"/>
<feOffset dy="4"/>
<feGaussianBlur stdDeviation="2"/>
<feComposite in2="hardAlpha" operator="out"/>
<feColorMatrix type="matrix" values="0 0 0 0 0 0 0 0 0 0 0 0 0 0 0 0 0 0 0.25 0"/>
<feBlend mode="normal" in2="BackgroundImageFix" result="effect1_dropShadow_24_10"/>
<feBlend mode="normal" in="SourceGraphic" in2="effect1_dropShadow_24_10" result="shape"/>
</filter>
</defs>
</svg>
